<svg width="21" height="20" viewBox="0 0 21 20" fill="none" xmlns="http://www.w3.org/2000/svg">
<g id="mingcute:arrow-up-line" clip-path="url(#clip0_1_13922)">
<g id="Group">
<path id="Vector" d="M9.90973 16.97C10.066 17.1262 10.2779 17.214 10.4989 17.214C10.7199 17.214 10.9318 17.1262 11.0881 16.97L15.8022 12.2558C15.8818 12.1789 15.9453 12.087 15.989 11.9853C16.0327 11.8836 16.0556 11.7743 16.0566 11.6636C16.0576 11.553 16.0365 11.4433 15.9946 11.3408C15.9527 11.2384 15.8908 11.1454 15.8126 11.0671C15.7343 10.9889 15.6413 10.927 15.5389 10.8851C15.4364 10.8432 15.3267 10.8221 15.2161 10.8231C15.1054 10.8241 14.9961 10.847 14.8944 10.8907C14.7927 10.9344 14.7008 10.9979 14.6239 11.0775L11.3322 14.3691L11.3322 3.3333C11.3322 3.11229 11.2444 2.90033 11.0882 2.74405C10.9319 2.58777 10.7199 2.49997 10.4989 2.49997C10.2779 2.49997 10.0659 2.58777 9.90964 2.74405C9.75336 2.90033 9.66557 3.11229 9.66557 3.3333L9.66557 14.3691L6.3739 11.0775C6.21673 10.9257 6.00623 10.8417 5.78773 10.8436C5.56923 10.8455 5.36022 10.9331 5.20572 11.0876C5.05121 11.2421 4.96357 11.4511 4.96167 11.6696C4.95977 11.8881 5.04377 12.0986 5.19557 12.2558L9.90973 16.97Z" fill="white"/>
</g>
</g>
<defs>
<clipPath id="clip0_1_13922">
<rect width="20" height="20" fill="white" transform="matrix(-1 0 0 -1 20.5 20)"/>
</clipPath>
</defs>
</svg>
