<?xml version="1.0" encoding="UTF-8"?>
<svg version="1.1" xmlns="http://www.w3.org/2000/svg" width="66" height="67">
<path d="M0 0 C8.39428348 4.91008089 13.93437116 10.91905278 16.95703125 20.23046875 C18.70070617 29.43772417 18.24515086 39.30621568 13.375 47.4375 C8.37281639 54.60518588 1.73065336 59.7542761 -6.625 62.4375 C-15.77689447 63.22772382 -24.68687336 63.62158271 -32.625 58.4375 C-33.66527344 57.81875 -33.66527344 57.81875 -34.7265625 57.1875 C-41.56999891 52.67647075 -45.87702572 45.99849673 -48.0625 38.125 C-50.044124 26.44167516 -47.06444481 17.41377042 -40.875 7.6875 C-30.15239612 -3.03510388 -13.91060096 -6.58645879 0 0 Z M-36.625 8.4375 C-36.955 9.0975 -37.285 9.7575 -37.625 10.4375 C-22.775 10.4375 -7.925 10.4375 7.375 10.4375 C0.48477965 3.54727965 -6.03340718 -0.23242586 -15.89453125 -0.69140625 C-24.10796013 -0.3036478 -30.65366014 2.84034332 -36.625 8.4375 Z M-38.625 10.4375 C-44.0260839 17.68285646 -46.79927567 25.37266464 -45.625 34.4375 C-43.94964175 40.80213416 -42.34917133 44.71332867 -37.625 49.4375 C-37.625 36.5675 -37.625 23.6975 -37.625 10.4375 C-37.955 10.4375 -38.285 10.4375 -38.625 10.4375 Z M7.375 10.4375 C7.375 23.3075 7.375 36.1775 7.375 49.4375 C13.13412527 42.23859342 16.03858211 35.41114472 15.16015625 26.1796875 C14.08191576 20.28530614 11.50867017 15.49682246 8.375 10.4375 C8.045 10.4375 7.715 10.4375 7.375 10.4375 Z M-36.625 50.4375 C-30.06450667 56.99799333 -24.66047991 59.96412903 -15.4375 60.6875 C-6.82766028 60.12292035 0.03496924 57.35250076 6.375 51.4375 C6.375 51.1075 6.375 50.7775 6.375 50.4375 C-7.815 50.4375 -22.005 50.4375 -36.625 50.4375 Z " fill="#00B347" transform="translate(48.625,3.5625)"/>
</svg>
