<svg width="27" height="23" viewBox="0 0 27 23" fill="none" xmlns="http://www.w3.org/2000/svg">
<g id="Group 1000003538">
<path id="Vector" d="M0.999992 11.4919C0.999992 8.25616 0.999992 6.63831 1.52861 5.36212C2.23343 3.66053 3.58533 2.30863 5.28691 1.60381C6.5631 1.0752 8.18095 1.0752 11.4167 1.0752H15.5833C18.819 1.0752 20.4369 1.0752 21.7131 1.60381C23.4147 2.30863 24.7666 3.66053 25.4714 5.36212C26 6.63831 26 8.25616 26 11.4919V11.4919C26 14.7276 26 16.3454 25.4714 17.6216C24.7666 19.3232 23.4147 20.6751 21.7131 21.3799C20.4369 21.9085 18.819 21.9085 15.5833 21.9085H11.4167C8.18095 21.9085 6.5631 21.9085 5.28691 21.3799C3.58533 20.6751 2.23343 19.3232 1.52861 17.6216C0.999992 16.3454 0.999992 14.7276 0.999992 11.4919V11.4919Z" stroke="white" stroke-width="1.10262" stroke-linejoin="round"/>
<path id="Vector_2" d="M0.999992 5.93652L5.82619 9.69005C9.08955 12.2281 10.7212 13.4971 12.5851 13.745C13.1927 13.8257 13.8084 13.8257 14.416 13.7449C16.2798 13.497 17.9114 12.2279 21.1747 9.6897L26 5.93652" stroke="white" stroke-width="1.10262" stroke-linejoin="round"/>
</g>
</svg>
