<svg width="42" height="42" viewBox="0 0 42 42" fill="none" xmlns="http://www.w3.org/2000/svg">
<g id="emoji_objects" opacity="0.7">
<mask id="mask0_1_13948" style="mask-type:alpha" maskUnits="userSpaceOnUse" x="0" y="0" width="42" height="42">
<rect id="Bounding box" width="42" height="42" fill="#D9D9D9"/>
</mask>
<g mask="url(#mask0_1_13948)">
<path id="emoji_objects_2" d="M15.0972 38.4998C14.3388 38.4998 13.6534 38.3175 13.0409 37.9529C12.4284 37.5883 11.9472 37.0998 11.5972 36.4873H8.09717V26.7748C6.37633 25.6373 4.99821 24.1352 3.96279 22.2685C2.92738 20.4018 2.40967 18.3748 2.40967 16.1873C2.40967 12.6581 3.64196 9.66121 6.10654 7.19663C8.57113 4.73205 11.568 3.49976 15.0972 3.49976C18.6263 3.49976 21.6232 4.73205 24.0878 7.19663C26.5524 9.66121 27.7847 12.6581 27.7847 16.1873C27.7847 18.4331 27.267 20.4748 26.2315 22.3123C25.1961 24.1498 23.818 25.6373 22.0972 26.7748V36.4873H18.5972C18.2472 37.0998 17.7659 37.5883 17.1534 37.9529C16.5409 38.3175 15.8555 38.4998 15.0972 38.4998ZM11.5972 32.9873H18.5972V31.4123H11.5972V32.9873ZM11.5972 29.6623H18.5972V27.9998H11.5972V29.6623ZM11.2472 24.4998H13.7847V19.7748L9.93467 15.9248L11.7722 14.0873L15.0972 17.4123L18.4222 14.0873L20.2597 15.9248L16.4097 19.7748V24.4998H18.9472C20.5222 23.7414 21.8055 22.6258 22.7972 21.1529C23.7888 19.68 24.2847 18.0248 24.2847 16.1873C24.2847 13.6206 23.3951 11.4477 21.6159 9.66851C19.8368 7.88934 17.6638 6.99976 15.0972 6.99976C12.5305 6.99976 10.3576 7.88934 8.57842 9.66851C6.79925 11.4477 5.90967 13.6206 5.90967 16.1873C5.90967 18.0248 6.4055 19.68 7.39717 21.1529C8.38883 22.6258 9.67217 23.7414 11.2472 24.4998Z" fill="white"/>
</g>
</g>
</svg>
