<svg width="17" height="16" viewBox="0 0 17 16" fill="none" xmlns="http://www.w3.org/2000/svg">
<g id="Frame">
<path id="Vector" d="M8.07572 2.33268C8.10391 2.2639 8.15193 2.20506 8.21366 2.16365C8.27539 2.12224 8.34805 2.10013 8.42238 2.10013C8.49672 2.10013 8.56937 2.12224 8.6311 2.16365C8.69283 2.20506 8.74085 2.2639 8.76905 2.33268L10.1857 5.74001C10.2122 5.80377 10.2558 5.85897 10.3117 5.89955C10.3676 5.94013 10.4335 5.96451 10.5024 5.97001L14.181 6.26468C14.5137 6.29134 14.6484 6.70668 14.395 6.92334L11.5924 9.32468C11.54 9.36947 11.501 9.42782 11.4796 9.49331C11.4582 9.55881 11.4552 9.62894 11.471 9.69601L12.3277 13.286C12.3449 13.358 12.3404 13.4335 12.3147 13.503C12.2891 13.5725 12.2434 13.6328 12.1835 13.6763C12.1235 13.7198 12.0521 13.7446 11.9781 13.7475C11.9041 13.7504 11.8309 13.7313 11.7677 13.6927L8.61772 11.7693C8.55887 11.7335 8.49129 11.7145 8.42238 11.7145C8.35347 11.7145 8.28589 11.7335 8.22705 11.7693L5.07705 13.6933C5.01389 13.732 4.94068 13.7511 4.86669 13.7482C4.79269 13.7452 4.72122 13.7205 4.66129 13.677C4.60137 13.6334 4.55569 13.5731 4.53002 13.5037C4.50434 13.4342 4.49983 13.3587 4.51705 13.2867L5.37372 9.69601C5.3896 9.62894 5.38668 9.55879 5.36528 9.49328C5.34387 9.42776 5.30481 9.36942 5.25238 9.32468L2.44972 6.92334C2.39359 6.87509 2.35299 6.81131 2.33302 6.74003C2.31304 6.66876 2.31459 6.59317 2.33746 6.52278C2.36033 6.45238 2.40351 6.39031 2.46156 6.34439C2.51961 6.29847 2.58994 6.27073 2.66372 6.26468L6.34238 5.97001C6.41122 5.96451 6.4772 5.94013 6.53307 5.89955C6.58894 5.85897 6.63253 5.80377 6.65905 5.74001L8.07572 2.33268Z" stroke="#D48D3B" stroke-width="1.5" stroke-linecap="round" stroke-linejoin="round"/>
</g>
</svg>
