<svg width="14" height="24" viewBox="0 0 14 24" fill="none" xmlns="http://www.w3.org/2000/svg">
<path id="Vector" d="M6.76 22.6752H7.24C8.13994 22.6752 8.5899 22.6752 8.90534 22.446C9.00722 22.372 9.09681 22.2824 9.17082 22.1805C9.4 21.8651 9.4 21.4151 9.4 20.5152V13.6752H10.9C11.7427 13.6752 12.164 13.6752 12.4667 13.473C12.5977 13.3854 12.7102 13.2729 12.7978 13.1419C13 12.8392 13 12.4179 13 11.5752C13 10.7325 13 10.3112 12.7978 10.0085C12.7102 9.87748 12.5977 9.76498 12.4667 9.67743C12.164 9.4752 11.7427 9.4752 10.9 9.4752H9.4V7.07519C9.4 6.51607 9.4 6.2365 9.49134 6.01598C9.61314 5.72194 9.84675 5.48833 10.1408 5.36654C10.3613 5.2752 10.6409 5.2752 11.2 5.2752C11.7591 5.2752 12.0387 5.2752 12.2592 5.18385C12.5533 5.06206 12.7869 4.82845 12.9087 4.53442C13 4.31389 13 4.03433 13 3.4752V2.94186C13 2.32006 13 2.00916 12.8876 1.76805C12.7683 1.51236 12.5628 1.30686 12.3071 1.18763C12.066 1.0752 11.7551 1.0752 11.1333 1.0752C8.95703 1.0752 7.86888 1.0752 7.02501 1.4687C6.13009 1.88601 5.41081 2.60528 4.99351 3.5002C4.6 4.34408 4.6 5.43223 4.6 7.60853V9.4752H3.1C2.25732 9.4752 1.83598 9.4752 1.53332 9.67743C1.40229 9.76498 1.28979 9.87748 1.20224 10.0085C1 10.3112 1 10.7325 1 11.5752C1 12.4179 1 12.8392 1.20224 13.1419C1.28979 13.2729 1.40229 13.3854 1.53332 13.473C1.83598 13.6752 2.25732 13.6752 3.1 13.6752H4.6V20.5152C4.6 21.4151 4.6 21.8651 4.82918 22.1805C4.9032 22.2824 4.99278 22.372 5.09466 22.446C5.4101 22.6752 5.86006 22.6752 6.76 22.6752Z" stroke="#06121B" stroke-width="1.5" stroke-linejoin="round"/>
</svg>
