<svg width="68" height="73" viewBox="0 0 68 73" fill="none" xmlns="http://www.w3.org/2000/svg">
<g id="Frame">
<path id="Vector" fill-rule="evenodd" clip-rule="evenodd" d="M13.0305 22.786C14.1139 22.5241 15.2214 22.3923 16.3323 22.393C25.1298 22.393 32.2595 30.541 32.2595 40.588C32.2595 50.638 25.1298 58.786 16.3323 58.786C7.53484 58.786 0.402344 50.641 0.402344 40.588C0.402344 40.294 0.407969 39.997 0.422031 39.703H0.402344C0.402344 24.538 11.2023 12.199 24.4773 12.199V18.307C20.1714 18.307 16.2002 19.981 13.0305 22.786ZM48.6761 22.786C49.7392 22.528 50.8417 22.393 51.9723 22.393C60.7698 22.393 67.9023 30.541 67.9023 40.588C67.9023 50.638 60.7698 58.786 51.9723 58.786C43.1748 58.786 36.0452 50.641 36.0452 40.588C36.0452 40.294 36.0508 39.997 36.0648 39.703H36.0452C36.0452 24.538 46.8452 12.199 60.1202 12.199V18.307C55.8114 18.307 51.8458 19.981 48.6761 22.786Z" fill="#417E36"/>
</g>
</svg>
