<svg width="42" height="42" viewBox="0 0 42 42" fill="none" xmlns="http://www.w3.org/2000/svg">
<g id="home_work" opacity="0.7">
<mask id="mask0_1_13942" style="mask-type:alpha" maskUnits="userSpaceOnUse" x="0" y="0" width="42" height="42">
<rect id="Bounding box" width="42" height="42" fill="#D9D9D9"/>
</mask>
<g mask="url(#mask0_1_13942)">
<path id="home_work_2" d="M29.7534 15.75H33.2534V12.25H29.7534V15.75ZM29.7534 22.75H33.2534V19.25H29.7534V22.75ZM29.7534 29.75H33.2534V26.25H29.7534V29.75ZM29.7534 36.75V33.25H36.7534V8.75H21.0034V11.2L17.5034 8.6625V5.25H40.2534V36.75H29.7534ZM1.75342 36.75V19.25L14.0034 10.5L26.2534 19.25V36.75H15.7534V28H12.2534V36.75H1.75342ZM5.25342 33.25H8.75342V24.5H19.2534V33.25H22.7534V21L14.0034 14.7875L5.25342 21V33.25Z" fill="white"/>
</g>
</g>
</svg>
