<svg width="25" height="25" viewBox="0 0 25 25" fill="none" xmlns="http://www.w3.org/2000/svg">
<g id="Group 1000003538">
<path id="Vector" d="M19.9264 5.51798C19.9264 5.80486 19.6938 6.03742 19.407 6.03742C19.1201 6.03742 18.8875 5.80486 18.8875 5.51798C18.8875 5.2311 19.1201 4.99854 19.407 4.99854C19.6938 4.99854 19.9264 5.2311 19.9264 5.51798Z" fill="#06121B" stroke="#06121B" stroke-width="1.5"/>
<g id="Vector_2">
<path d="M1 10.2152C1 6.40714 1 4.5031 1.96977 3.16833C2.28296 2.73725 2.66206 2.35816 3.09313 2.04496C4.42791 1.0752 6.33194 1.0752 10.14 1.0752H14.71C18.5181 1.0752 20.4221 1.0752 21.7569 2.04496C22.1879 2.35816 22.567 2.73725 22.8802 3.16833C23.85 4.5031 23.85 6.40713 23.85 10.2152V14.7852C23.85 18.5933 23.85 20.4973 22.8802 21.8321C22.567 22.2631 22.1879 22.6422 21.7569 22.9554C20.4221 23.9252 18.5181 23.9252 14.71 23.9252H10.14C6.33194 23.9252 4.42791 23.9252 3.09313 22.9554C2.66206 22.6422 2.28296 22.2631 1.96977 21.8321C1 20.4973 1 18.5933 1 14.7852V10.2152Z" stroke="#06121B" stroke-width="1.5" stroke-linejoin="round"/>
<path d="M17.5028 12.5002C17.5028 15.3046 15.2294 17.578 12.425 17.578C9.62062 17.578 7.34722 15.3046 7.34722 12.5002C7.34722 9.69582 9.62062 7.42242 12.425 7.42242C15.2294 7.42242 17.5028 9.69582 17.5028 12.5002Z" stroke="#06121B" stroke-width="1.5" stroke-linejoin="round"/>
</g>
</g>
</svg>
