<svg width="22" height="22" viewBox="0 0 22 22" fill="none" xmlns="http://www.w3.org/2000/svg">
<g id="Img">
<path id="Vector" d="M3.14729 10.3076L9.00667 4.44821C9.19014 4.26473 9.43896 4.16176 9.69841 4.16176C9.95786 4.16176 10.2067 4.26473 10.3901 4.44821C10.5736 4.6317 10.6767 4.88051 10.6767 5.13988C10.6767 5.3994 10.5736 5.64821 10.3901 5.8317L6.19819 10.0219H18.1611C18.4201 10.0219 18.6685 10.1248 18.8517 10.308C19.0348 10.4911 19.1377 10.7395 19.1377 10.9985C19.1377 11.2575 19.0348 11.5059 18.8517 11.689C18.6685 11.8722 18.4201 11.9751 18.1611 11.9751H6.19819L10.3885 16.1678C10.572 16.3512 10.675 16.6001 10.675 16.8595C10.675 17.119 10.572 17.3678 10.3885 17.5512C10.205 17.7347 9.95622 17.8378 9.69677 17.8378C9.43732 17.8378 9.1885 17.7347 9.00505 17.5512L3.14566 11.6919C3.05459 11.601 2.98241 11.4931 2.93316 11.3742C2.8839 11.2554 2.85875 11.128 2.8589 10.9994C2.85905 10.8708 2.8845 10.7434 2.93405 10.6247C2.9836 10.506 3.05608 10.3982 3.14729 10.3076Z" fill="#3F4A53"/>
</g>
</svg>
