<svg width="25" height="25" viewBox="0 0 25 25" fill="none" xmlns="http://www.w3.org/2000/svg">
<g id="Group 1000003541">
<path id="Vector" d="M11.0056 10.5962V18.2129V14.9599C11.0056 12.5499 12.9593 10.5962 15.3693 10.5962V10.5962C16.8153 10.5962 17.9875 11.7684 17.9875 13.2144V18.2129M6.5625 10.5962V18.2129" stroke="#06121B" stroke-width="1.5" stroke-linecap="round" stroke-linejoin="round"/>
<path id="Vector_2" d="M7.83218 6.788C7.83218 7.48909 7.26383 8.05744 6.56273 8.05744C5.86164 8.05744 5.29329 7.48909 5.29329 6.788C5.29329 6.0869 5.86164 5.51855 6.56273 5.51855C7.26383 5.51855 7.83218 6.0869 7.83218 6.788Z" fill="#06121B"/>
<path id="Vector_3" d="M0.850006 7.6752C0.850006 4.92539 0.850006 3.55049 1.55028 2.58665C1.77644 2.27537 2.05018 2.00162 2.36146 1.77547C3.3253 1.0752 4.7002 1.0752 7.45001 1.0752H17.1C19.8498 1.0752 21.2247 1.0752 22.1886 1.77547C22.4998 2.00162 22.7736 2.27537 22.9997 2.58665C23.7 3.55049 23.7 4.92539 23.7 7.67519V17.3252C23.7 20.075 23.7 21.4499 22.9997 22.4137C22.7736 22.725 22.4998 22.9988 22.1886 23.2249C21.2247 23.9252 19.8498 23.9252 17.1 23.9252H7.45001C4.7002 23.9252 3.3253 23.9252 2.36146 23.2249C2.05018 22.9988 1.77644 22.725 1.55028 22.4137C0.850006 21.4499 0.850006 20.075 0.850006 17.3252V7.6752Z" stroke="#06121B" stroke-width="1.5" stroke-linejoin="round"/>
</g>
</svg>
