<svg width="11" height="12" viewBox="0 0 11 12" fill="none" xmlns="http://www.w3.org/2000/svg">
<g id="ic Linkedin">
<path id="Oval" d="M1.43051 2.9671C2.16582 2.9671 2.7619 2.30289 2.7619 1.48355C2.7619 0.664208 2.16582 0 1.43051 0C0.695205 0 0.0991211 0.664208 0.0991211 1.48355C0.0991211 2.30289 0.695205 2.9671 1.43051 2.9671Z" fill="white"/>
<path id="Shape" d="M2.53988 3.95801H0.320897C0.19841 3.95801 0.098999 4.06878 0.098999 4.20527V11.623C0.098999 11.7595 0.19841 11.8703 0.320897 11.8703H2.53988C2.66237 11.8703 2.76178 11.7595 2.76178 11.623V4.20527C2.76178 4.06878 2.66237 3.95801 2.53988 3.95801Z" fill="white"/>
<path id="Shape_2" d="M9.14763 3.5464C8.19923 3.18442 7.01296 3.50239 6.30156 4.07257C6.27715 3.96625 6.19016 3.88712 6.08676 3.88712H3.86777C3.74528 3.88712 3.64587 3.9979 3.64587 4.13438V11.5521C3.64587 11.6886 3.74528 11.7994 3.86777 11.7994H6.08676C6.20925 11.7994 6.30866 11.6886 6.30866 11.5521V6.22124C6.66724 5.87706 7.12924 5.76728 7.50735 5.94629C7.87393 6.11888 8.08384 6.5402 8.08384 7.10148V11.5521C8.08384 11.6886 8.18325 11.7994 8.30574 11.7994H10.5247C10.6472 11.7994 10.7466 11.6886 10.7466 11.5521V6.6035C10.7213 4.57153 9.86347 3.81937 9.14763 3.5464Z" fill="white"/>
</g>
</svg>
