<svg width="26" height="26" viewBox="0 0 26 26" fill="none" xmlns="http://www.w3.org/2000/svg">
<g id="pin">
<rect x="0.533953" y="0.609148" width="24.9321" height="24.9321" stroke="white" stroke-width="0.0679053"/>
<g id="Group">
<g id="Group_2">
<g id="Vector">
<path d="M13.1534 2.84814C7.52348 2.84814 2.95934 7.37876 4.09217 13.042C4.84571 16.8091 8.60603 20.3256 11.0396 22.2581C11.835 22.8897 12.2327 23.2056 12.8503 23.289C13.0215 23.3121 13.2854 23.3121 13.4566 23.289C14.0741 23.2056 14.4718 22.8898 15.2672 22.2582C17.7009 20.3257 21.4613 16.8092 22.2147 13.042C23.3472 7.37876 18.7833 2.84814 13.1534 2.84814Z" stroke="white" stroke-width="1.5" stroke-linejoin="round"/>
<path d="M16.5512 12.0793C16.5512 13.9559 15.0299 15.4772 13.1533 15.4772C11.2766 15.4772 9.75531 13.9559 9.75531 12.0793C9.75531 10.2026 11.2766 8.68132 13.1533 8.68132C15.0299 8.68132 16.5512 10.2026 16.5512 12.0793Z" stroke="white" stroke-width="1.5" stroke-linejoin="round"/>
</g>
</g>
</g>
</g>
</svg>
