<svg width="23" height="23" viewBox="0 0 23 23" fill="none" xmlns="http://www.w3.org/2000/svg">
<path id="Vector" d="M2.22375 2.29847L1.87026 1.94484L2.22375 2.29847ZM8.13253 2.29847L8.48601 1.94484L8.13253 2.29847ZM8.13253 8.20494L7.77904 7.85132L8.13253 8.20494ZM15.3075 15.3771L14.954 15.0235L15.3075 15.3771ZM21.2163 21.2836L20.8628 20.9299L21.2163 21.2836ZM6.4443 17.0646L6.09082 17.4183L6.4443 17.0646ZM1.02212 5.68223L1.52211 5.67939C1.52202 5.66321 1.52115 5.64705 1.51949 5.63096L1.02212 5.68223ZM17.8312 22.4847L17.8824 21.9873C17.8663 21.9857 17.8502 21.9848 17.834 21.9847L17.8312 22.4847ZM5.84138 9.37556L5.76245 8.88183C5.60251 8.9074 5.46486 9.00886 5.39311 9.15408C5.32136 9.2993 5.3244 9.47028 5.40128 9.61285L5.84138 9.37556ZM14.1364 17.6673L13.8992 18.1075C14.0418 18.1843 14.2127 18.1873 14.3579 18.1156C14.5031 18.0438 14.6045 17.9062 14.6301 17.7463L14.1364 17.6673ZM2.57723 2.65209C4.01365 1.21623 6.34262 1.21623 7.77904 2.65209L8.48601 1.94484C6.6591 0.118646 3.69717 0.118646 1.87026 1.94484L2.57723 2.65209ZM7.77904 2.65209C9.21535 4.08784 9.21535 6.41557 7.77904 7.85132L8.48601 8.55856C10.313 6.73226 10.313 3.77115 8.48601 1.94484L7.77904 2.65209ZM15.661 15.7307C17.0974 14.2948 19.4263 14.2948 20.8628 15.7307L21.5697 15.0235C19.7428 13.1973 16.7809 13.1973 14.954 15.0235L15.661 15.7307ZM20.8628 15.7307C22.2991 17.1665 22.2991 19.4942 20.8628 20.9299L21.5697 21.6372C23.3968 19.8109 23.3968 16.8498 21.5697 15.0235L20.8628 15.7307ZM6.79779 16.711C3.36864 13.2832 1.54173 9.13631 1.52211 5.67939L0.522131 5.68506C0.543572 9.46286 2.52056 13.8494 6.09082 17.4183L6.79779 16.711ZM1.51949 5.63096C1.40982 4.56693 1.76264 3.46636 2.57723 2.65209L1.87026 1.94484C0.833808 2.98089 0.385543 4.38277 0.524758 5.73349L1.51949 5.63096ZM20.8628 20.9299C20.0482 21.7442 18.947 22.097 17.8824 21.9873L17.7799 22.9821C19.131 23.1212 20.5333 22.6732 21.5697 21.6372L20.8628 20.9299ZM17.834 21.9847C14.3755 21.9651 10.2269 20.1388 6.79779 16.711L6.09082 17.4183C9.66109 20.9872 14.0493 22.9633 17.8283 22.9847L17.834 21.9847ZM7.77904 7.85132C7.20941 8.42072 6.50076 8.7638 5.76245 8.88183L5.92031 9.86929C6.85959 9.71914 7.76248 9.28181 8.48601 8.55856L7.77904 7.85132ZM9.75218 13.7578C8.30772 12.3139 7.14437 10.7386 6.28148 9.13826L5.40128 9.61285C6.3117 11.3014 7.53413 12.9545 9.04521 14.465L9.75218 13.7578ZM14.6301 17.7463C14.7482 17.0084 15.0913 16.3001 15.661 15.7307L14.954 15.0235C14.2305 15.7467 13.7929 16.6493 13.6427 17.5884L14.6301 17.7463ZM14.3735 17.2272C12.7725 16.3646 11.1966 15.2017 9.75218 13.7578L9.04521 14.465C10.5563 15.9755 12.2101 17.1975 13.8992 18.1075L14.3735 17.2272Z" fill="white"/>
</svg>
