<svg width="42" height="42" viewBox="0 0 42 42" fill="none" xmlns="http://www.w3.org/2000/svg">
<g opacity="0.7">
<mask id="mask0_1_13936" style="mask-type:alpha" maskUnits="userSpaceOnUse" x="0" y="0" width="42" height="42">
<rect width="42" height="42" fill="#D9D9D9"/>
</mask>
<g mask="url(#mask0_1_13936)">
<path d="M4.59717 31.806L1.75342 29.7498L10.5034 15.7498L15.7534 21.8748L22.7534 10.4998L27.5222 17.631C26.8513 17.6602 26.217 17.7404 25.619 17.8716C25.0211 18.0029 24.4305 18.1852 23.8472 18.4185L22.8847 16.9748L16.2347 27.781L10.9409 21.6123L4.59717 31.806ZM37.7597 40.2498L32.2909 34.781C31.7076 35.1893 31.0586 35.4956 30.344 35.6998C29.6295 35.9039 28.893 36.006 28.1347 36.006C25.9472 36.006 24.0878 35.2404 22.5565 33.7091C21.0253 32.1779 20.2597 30.3185 20.2597 28.131C20.2597 25.9435 21.0253 24.0841 22.5565 22.5529C24.0878 21.0216 25.9472 20.256 28.1347 20.256C30.3222 20.256 32.1815 21.0216 33.7128 22.5529C35.244 24.0841 36.0097 25.9435 36.0097 28.131C36.0097 28.8893 35.9076 29.6258 35.7034 30.3404C35.4993 31.055 35.193 31.7185 34.7847 32.331L40.2534 37.756L37.7597 40.2498ZM28.1347 32.506C29.3597 32.506 30.3951 32.0831 31.2409 31.2373C32.0868 30.3914 32.5097 29.356 32.5097 28.131C32.5097 26.906 32.0868 25.8706 31.2409 25.0248C30.3951 24.1789 29.3597 23.756 28.1347 23.756C26.9097 23.756 25.8743 24.1789 25.0284 25.0248C24.1826 25.8706 23.7597 26.906 23.7597 28.131C23.7597 29.356 24.1826 30.3914 25.0284 31.2373C25.8743 32.0831 26.9097 32.506 28.1347 32.506ZM32.0284 18.506C31.4743 18.2727 30.8982 18.0831 30.3003 17.9373C29.7024 17.7914 29.0826 17.7039 28.4409 17.6748L37.4097 3.49976L40.2534 5.55601L32.0284 18.506Z" fill="white"/>
</g>
</g>
</svg>
