<svg width="22" height="22" viewBox="0 0 22 22" fill="none" xmlns="http://www.w3.org/2000/svg">
<g id="Img">
<path id="Vector" d="M18.8547 11.6918L12.9953 17.5512C12.8118 17.7347 12.563 17.8376 12.3035 17.8376C12.0441 17.8376 11.7953 17.7347 11.6118 17.5512C11.4284 17.3677 11.3253 17.1189 11.3253 16.8595C11.3253 16.6 11.4284 16.3512 11.6118 16.1677L15.8038 11.9775H3.84082C3.58182 11.9775 3.33342 11.8746 3.15028 11.6914C2.96714 11.5083 2.86426 11.2599 2.86426 11.0009C2.86426 10.7419 2.96714 10.4935 3.15028 10.3104C3.33342 10.1272 3.58182 10.0243 3.84082 10.0243H15.8038L11.6134 5.83161C11.43 5.64815 11.3269 5.39933 11.3269 5.13988C11.3269 4.88043 11.43 4.63161 11.6134 4.44815C11.7969 4.26469 12.0457 4.16162 12.3052 4.16162C12.5646 4.16162 12.8135 4.26469 12.9969 4.44815L18.8563 10.3075C18.9474 10.3984 19.0195 10.5063 19.0688 10.6251C19.118 10.744 19.1432 10.8714 19.1431 11C19.1429 11.1286 19.1175 11.256 19.0679 11.3747C19.0183 11.4934 18.9459 11.6012 18.8547 11.6918Z" fill="#3F4A53"/>
</g>
</svg>
