<svg width="18" height="18" viewBox="0 0 18 18" fill="none" xmlns="http://www.w3.org/2000/svg">
<g id="Star" clip-path="url(#clip0_2_191)">
<path id="Star_2" d="M8.12482 1.37126C8.27031 1.02147 8.76582 1.02146 8.91131 1.37126L10.6712 5.60259C10.7326 5.75005 10.8712 5.85081 11.0304 5.86357L15.5985 6.22979C15.9761 6.26006 16.1293 6.73133 15.8415 6.97779L12.3612 9.95911C12.2399 10.063 12.1869 10.226 12.2239 10.3814L13.2873 14.8391C13.3752 15.2076 12.9743 15.4988 12.651 15.3013L8.74007 12.9126C8.60377 12.8293 8.43236 12.8293 8.29606 12.9126L4.38515 15.3013C4.06185 15.4988 3.66097 15.2076 3.74887 14.8391L4.81218 10.3814C4.84924 10.226 4.79627 10.063 4.67498 9.95911L1.19458 6.97779C0.906871 6.73133 1.05999 6.26006 1.43762 6.22979L6.0057 5.86357C6.1649 5.85081 6.30358 5.75005 6.36491 5.60259L8.12482 1.37126Z" fill="#FDB022"/>
</g>
<defs>
<clipPath id="clip0_2_191">
<rect width="17.0361" height="17.0361" fill="white"/>
</clipPath>
</defs>
</svg>
