<svg width="9" height="18" viewBox="0 0 9 18" fill="none" xmlns="http://www.w3.org/2000/svg">
<g id="Star" clip-path="url(#clip0_2_202)">
<path id="Star_2" d="M8.26935 1.37126C8.41484 1.02147 8.91036 1.02146 9.05584 1.37126L10.8158 5.60259C10.8771 5.75005 11.0158 5.85081 11.175 5.86357L15.743 6.22979C16.1207 6.26006 16.2738 6.73133 15.9861 6.97779L12.5057 9.95911C12.3844 10.063 12.3314 10.226 12.3685 10.3814L13.4318 14.8391C13.5197 15.2076 13.1188 15.4988 12.7955 15.3013L8.8846 12.9126C8.7483 12.8293 8.57689 12.8293 8.44059 12.9126L4.52968 15.3013C4.20638 15.4988 3.8055 15.2076 3.8934 14.8391L4.95671 10.3814C4.99377 10.226 4.9408 10.063 4.81951 9.95911L1.33912 6.97779C1.0514 6.73133 1.20453 6.26006 1.58215 6.22979L6.15023 5.86357C6.30943 5.85081 6.44811 5.75005 6.50944 5.60259L8.26935 1.37126Z" fill="#FDB022"/>
</g>
<defs>
<clipPath id="clip0_2_202">
<rect width="8.51807" height="17.0361" fill="white" transform="translate(0.144531 -0.00012207)"/>
</clipPath>
</defs>
</svg>
