<svg width="21" height="20" viewBox="0 0 21 20" fill="none" xmlns="http://www.w3.org/2000/svg">
<path d="M16.3724 4.0917C15.6083 3.32012 14.6983 2.70834 13.6953 2.292C12.6924 1.87567 11.6167 1.6631 10.5307 1.6667C5.98075 1.6667 2.27242 5.37504 2.27242 9.92504C2.27242 11.3834 2.65575 12.8 3.37242 14.05L2.20575 18.3334L6.58075 17.1834C7.78908 17.8417 9.14742 18.1917 10.5307 18.1917C15.0807 18.1917 18.7891 14.4834 18.7891 9.93337C18.7891 7.72504 17.9307 5.65003 16.3724 4.0917ZM10.5307 16.7917C9.29742 16.7917 8.08908 16.4584 7.03075 15.8334L6.78075 15.6834L4.18075 16.3667L4.87242 13.8334L4.70575 13.575C4.02037 12.4809 3.65652 11.2161 3.65575 9.92504C3.65575 6.1417 6.73908 3.05837 10.5224 3.05837C12.3557 3.05837 14.0807 3.77503 15.3724 5.07504C16.0121 5.71159 16.519 6.46882 16.8638 7.30281C17.2085 8.1368 17.3842 9.03094 17.3807 9.93337C17.3974 13.7167 14.3141 16.7917 10.5307 16.7917ZM14.2974 11.6584C14.0891 11.5584 13.0724 11.0584 12.8891 10.9834C12.6974 10.9167 12.5641 10.8834 12.4224 11.0834C12.2807 11.2917 11.8891 11.7584 11.7724 11.8917C11.6557 12.0334 11.5307 12.05 11.3224 11.9417C11.1141 11.8417 10.4474 11.6167 9.66408 10.9167C9.04742 10.3667 8.63908 9.6917 8.51408 9.48337C8.39742 9.27504 8.49742 9.1667 8.60575 9.05837C8.69742 8.9667 8.81408 8.8167 8.91408 8.70004C9.01408 8.58337 9.05575 8.4917 9.12242 8.35837C9.18908 8.2167 9.15575 8.10004 9.10575 8.00004C9.05575 7.90004 8.63908 6.88337 8.47242 6.4667C8.30575 6.0667 8.13075 6.1167 8.00575 6.10837H7.60575C7.46408 6.10837 7.24742 6.15837 7.05575 6.3667C6.87242 6.57503 6.33908 7.07504 6.33908 8.0917C6.33908 9.10837 7.08075 10.0917 7.18075 10.225C7.28075 10.3667 8.63908 12.45 10.7057 13.3417C11.1974 13.5584 11.5807 13.6834 11.8807 13.775C12.3724 13.9334 12.8224 13.9084 13.1807 13.8584C13.5807 13.8 14.4057 13.3584 14.5724 12.875C14.7474 12.3917 14.7474 11.9834 14.6891 11.8917C14.6307 11.8 14.5057 11.7584 14.2974 11.6584Z" fill="white"/>
</svg>
