<svg width="17" height="17" viewBox="0 0 17 17" fill="none" xmlns="http://www.w3.org/2000/svg">
<path d="M12.3333 2.89746C12.7711 2.89746 13.2045 2.98368 13.6089 3.1512C14.0134 3.31871 14.3808 3.56424 14.6904 3.87377C14.9999 4.1833 15.2454 4.55076 15.4129 4.95518C15.5804 5.3596 15.6667 5.79305 15.6667 6.23079V11.5641C15.6667 12.0019 15.5804 12.4353 15.4129 12.8397C15.2454 13.2442 14.9999 13.6116 14.6904 13.9212C14.3808 14.2307 14.0134 14.4762 13.6089 14.6437C13.2045 14.8112 12.7711 14.8975 12.3333 14.8975H4.33333C3.89559 14.8975 3.46214 14.8112 3.05772 14.6437C2.6533 14.4762 2.28584 14.2307 1.97631 13.9212C1.35119 13.296 1 12.4482 1 11.5641V6.23079C1 5.34674 1.35119 4.49889 1.97631 3.87377C2.60143 3.24865 3.44928 2.89746 4.33333 2.89746H12.3333ZM6.33333 6.89746V10.8975C6.33343 11.0154 6.36478 11.1311 6.42421 11.233C6.48363 11.3348 6.56899 11.419 6.6716 11.4771C6.7742 11.5352 6.89036 11.565 7.00825 11.5635C7.12614 11.5621 7.24154 11.5294 7.34267 11.4688L10.676 9.46879C10.7746 9.40953 10.8561 9.32576 10.9127 9.22565C10.9694 9.12554 10.9991 9.01248 10.9991 8.89746C10.9991 8.78245 10.9694 8.66939 10.9127 8.56927C10.8561 8.46916 10.7746 8.3854 10.676 8.32613L7.34267 6.32613C7.24154 6.26553 7.12614 6.23283 7.00825 6.23137C6.89036 6.22991 6.7742 6.25974 6.6716 6.31782C6.56899 6.3759 6.48363 6.46014 6.42421 6.56197C6.36478 6.6638 6.33343 6.77956 6.33333 6.89746Z" fill="white"/>
</svg>
